<svg width="512" height="512" viewBox="0 0 512 512" fill="none" xmlns="http://www.w3.org/2000/svg">
  <rect width="512" height="512" rx="64" fill="#8E44AD"/>
  <path d="M147.5 115C147.5 110.582 150.978 107 155.273 107C159.568 107 163.047 110.582 163.047 115V397C163.047 401.418 159.568 405 155.273 405C150.978 405 147.5 401.418 147.5 397V115Z" fill="white"/>
  <path d="M163.047 234.5L328.042 182.5V329.5L163.047 277.5V234.5Z" fill="white"/>
  <path d="M328.042 115C328.042 110.582 331.52 107 335.815 107C340.111 107 343.589 110.582 343.589 115V397C343.589 401.418 340.111 405 335.815 405C331.52 405 328.042 401.418 328.042 397V115Z" fill="white"/>
  <path d="M384.5 292.5C394.717 292.5 403 284.217 403 274C403 263.783 394.717 255.5 384.5 255.5C374.283 255.5 366 263.783 366 274C366 284.217 374.283 292.5 384.5 292.5Z" fill="white"/>
  <path d="M384.5 215.5C394.717 215.5 403 207.217 403 197C403 186.783 394.717 178.5 384.5 178.5C374.283 178.5 366 186.783 366 197C366 207.217 374.283 215.5 384.5 215.5Z" fill="white"/>
  <path d="M125.5 292.5C115.283 292.5 107 284.217 107 274C107 263.783 115.283 255.5 125.5 255.5C135.717 255.5 144 263.783 144 274C144 284.217 135.717 292.5 125.5 292.5Z" fill="white"/>
  <path d="M125.5 215.5C115.283 215.5 107 207.217 107 197C107 186.783 115.283 178.5 125.5 178.5C135.717 178.5 144 186.783 144 197C144 207.217 135.717 215.5 125.5 215.5Z" fill="white"/>
  <path d="M194.5 155.5C204.717 155.5 213 147.217 213 137C213 126.783 204.717 118.5 194.5 118.5C184.283 118.5 176 126.783 176 137C176 147.217 184.283 155.5 194.5 155.5Z" fill="white"/>
  <path d="M194.5 392.5C204.717 392.5 213 384.217 213 374C213 363.783 204.717 355.5 194.5 355.5C184.283 355.5 176 363.783 176 374C176 384.217 184.283 392.5 194.5 392.5Z" fill="white"/>
  <path d="M307.5 155.5C297.283 155.5 289 147.217 289 137C289 126.783 297.283 118.5 307.5 118.5C317.717 118.5 326 126.783 326 137C326 147.217 317.717 155.5 307.5 155.5Z" fill="white"/>
  <path d="M307.5 392.5C297.283 392.5 289 384.217 289 374C289 363.783 297.283 355.5 307.5 355.5C317.717 355.5 326 363.783 326 374C326 384.217 317.717 392.5 307.5 392.5Z" fill="white"/>
  <!-- Sound waves -->
  <path d="M246 125C246 122.239 248.239 120 251 120C253.761 120 256 122.239 256 125V145C256 147.761 253.761 150 251 150C248.239 150 246 147.761 246 145V125Z" fill="white"/>
  <path d="M231 105C231 102.239 233.239 100 236 100C238.761 100 241 102.239 241 105V165C241 167.761 238.761 170 236 170C233.239 170 231 167.761 231 165V105Z" fill="white"/>
  <path d="M216 85C216 82.2386 218.239 80 221 80C223.761 80 226 82.2386 226 85V182C226 184.761 223.761 187 221 187C218.239 187 216 184.761 216 182V85Z" fill="white"/>
  <path d="M246 370C246 367.239 248.239 365 251 365C253.761 365 256 367.239 256 370V390C256 392.761 253.761 395 251 395C248.239 395 246 392.761 246 390V370Z" fill="white"/>
  <path d="M231 350C231 347.239 233.239 345 236 345C238.761 345 241 347.239 241 350V410C241 412.761 238.761 415 236 415C233.239 415 231 412.761 231 410V350Z" fill="white"/>
  <path d="M216 332C216 329.239 218.239 327 221 327C223.761 327 226 329.239 226 332V429C226 431.761 223.761 434 221 434C218.239 434 216 431.761 216 429V332Z" fill="white"/>
</svg> 